<?xml version="1.0" standalone="no"?>
<!DOCTYPE svg PUBLIC "-//W3C//DTD SVG 20010904//EN"
 "http://www.w3.org/TR/2001/REC-SVG-20010904/DTD/svg10.dtd">
<svg version="1.0" xmlns="http://www.w3.org/2000/svg"
 width="172.000000pt" height="157.000000pt" viewBox="0 0 172.000000 157.000000"
 preserveAspectRatio="xMidYMid meet">
<metadata>
Created by potrace 1.16, written by Peter Selinger 2001-2019
</metadata>
<g transform="translate(0.000000,157.000000) scale(0.100000,-0.100000)"
fill="#000000" stroke="none">
<path d="M1292 1054 c-66 -33 -94 -72 -100 -138 -6 -76 20 -108 143 -173 55
-29 106 -61 113 -70 6 -9 12 -35 12 -58 0 -82 -86 -118 -175 -75 -38 18 -51
33 -73 76 -14 30 -30 54 -34 54 -12 0 -10 -118 2 -140 21 -40 168 -63 253 -39
43 12 101 59 123 100 18 36 18 92 0 127 -21 40 -52 65 -145 116 -97 54 -110
67 -111 119 -1 99 125 115 190 25 16 -22 32 -49 35 -59 4 -10 11 -19 16 -19
11 0 12 38 3 104 -7 45 -8 46 -57 61 -76 22 -135 19 -195 -11z"/>
<path d="M314 1061 c3 -4 19 -14 36 -21 35 -15 35 -9 23 -319 l-6 -182 -41
-22 -41 -22 58 -3 c32 -2 81 -2 110 0 l52 3 -44 23 -43 24 6 45 c3 25 6 118 6
206 0 90 4 157 9 152 4 -6 52 -112 106 -237 85 -197 101 -228 120 -228 19 0
36 33 128 248 l106 247 1 -221 0 -222 -30 -12 c-58 -24 -40 -30 87 -29 103 0
124 3 109 12 -58 37 -55 23 -62 284 l-7 243 39 17 39 18 -94 3 c-66 2 -97 -1
-102 -9 -4 -7 -47 -104 -95 -216 -55 -127 -90 -199 -95 -191 -5 7 -47 104 -95
215 l-88 203 -98 0 c-55 0 -97 -4 -94 -9z"/>
</g>
</svg>
