<?xml version="1.0" standalone="no"?>
<!DOCTYPE svg PUBLIC "-//W3C//DTD SVG 20010904//EN"
 "http://www.w3.org/TR/2001/REC-SVG-20010904/DTD/svg10.dtd">
<svg version="1.0" xmlns="http://www.w3.org/2000/svg"
 width="433.000000pt" height="576.000000pt" viewBox="0 0 433.000000 576.000000"
 preserveAspectRatio="xMidYMid meet">
<metadata>
Created by potrace 1.16, written by Peter Selinger 2001-2019
</metadata>
<g transform="translate(0.000000,576.000000) scale(0.100000,-0.100000)"
fill="#000000" stroke="none">
<path d="M1885 3271 c-16 -10 -39 -28 -49 -40 -21 -23 -74 -29 -94 -9 -17 17
-100 -26 -108 -56 -3 -13 -16 -28 -30 -35 -13 -6 -24 -15 -24 -21 0 -6 -4 -9
-8 -6 -10 6 -70 -71 -106 -139 -15 -27 -54 -79 -86 -115 -101 -110 -148 -227
-137 -336 3 -32 1 -56 -5 -60 -5 -3 -7 -16 -4 -28 2 -11 7 -68 11 -126 3 -58
11 -135 17 -172 6 -37 11 -71 10 -75 0 -5 7 -11 16 -14 10 -4 26 -24 37 -45
11 -21 28 -45 37 -54 10 -8 18 -28 18 -45 0 -16 0 -54 0 -82 1 -29 -3 -61 -9
-71 -7 -13 -5 -34 5 -70 12 -41 20 -52 36 -52 20 0 20 3 13 113 -5 61 -8 121
-7 132 0 11 -4 88 -9 170 -9 125 -8 165 5 237 20 111 32 140 92 215 43 54 51
60 69 51 11 -6 23 -16 27 -22 12 -17 10 22 -2 44 -7 13 -7 21 0 25 6 4 8 10 5
15 -7 12 20 20 46 13 21 -6 21 -7 4 -20 -31 -22 5 -16 45 8 l34 21 -39 14
c-22 8 -41 14 -42 14 -8 0 -1 31 12 57 20 40 43 59 81 67 16 4 52 18 79 31 26
14 56 25 66 25 10 0 20 4 23 9 16 26 196 38 256 17 25 -9 51 -16 57 -16 32 0
164 -72 180 -98 9 -15 40 -52 69 -82 61 -64 84 -106 116 -215 29 -97 27 -116
-10 -106 -15 3 -62 6 -104 5 -78 -1 -96 -8 -147 -53 -13 -11 -28 -18 -34 -14
-5 3 -7 2 -4 -4 3 -5 -5 -22 -18 -37 -14 -16 -22 -36 -20 -48 11 -54 29 -89
56 -109 31 -22 51 -21 24 1 -23 19 -18 30 14 30 17 0 33 5 36 10 3 6 22 10 41
10 19 0 35 5 35 10 1 6 3 15 4 20 1 6 3 12 4 15 0 3 10 1 21 -5 11 -6 18 -15
15 -21 -4 -5 1 -9 9 -9 8 0 21 -6 28 -14 11 -11 21 -10 58 8 25 12 46 28 46
36 1 8 2 25 3 38 0 13 4 21 9 19 4 -3 6 63 5 146 -1 134 -7 195 -30 325 -4 27
0 39 22 62 23 24 26 34 21 64 -4 20 -11 36 -17 36 -5 0 -14 10 -20 23 -5 12
-16 33 -24 47 -8 14 -15 37 -15 51 0 37 -32 105 -61 130 -191 164 -202 171
-264 171 -35 0 -64 -5 -80 -16 -25 -16 -28 -16 -59 3 -46 29 -206 30 -251 2z"/>
<path d="M1751 2258 c-55 -8 -104 -32 -135 -66 -16 -19 -16 -20 1 -26 11 -5
23 0 34 15 15 20 22 21 90 15 41 -4 91 -10 113 -13 38 -6 38 -6 15 -18 -35
-18 -152 -28 -143 -13 5 7 -5 3 -20 -10 -16 -12 -35 -22 -42 -22 -8 0 -14 -3
-14 -8 0 -4 -10 -12 -22 -17 -13 -6 -24 -17 -26 -25 -5 -26 44 -22 95 8 75 45
136 62 194 55 60 -7 58 -12 -10 -19 -29 -3 -83 -17 -119 -30 -37 -13 -68 -24
-69 -24 -2 0 -3 -4 -3 -9 0 -22 43 -23 71 -2 23 17 32 19 47 10 29 -18 92 -3
92 22 0 14 5 19 18 17 9 -2 16 -10 15 -16 -2 -8 12 -12 41 -12 39 0 44 2 39
20 -3 11 0 20 6 20 14 0 37 37 45 74 6 25 5 28 -13 23 -17 -4 -21 0 -21 19 0
13 -6 24 -12 25 -7 0 -22 3 -33 7 -31 9 -174 9 -234 0z"/>
<path d="M2405 1577 c-6 -21 -16 -25 -83 -35 -42 -7 -99 -12 -125 -12 -27 0
-57 -5 -68 -11 -15 -7 -24 -7 -34 1 -12 10 -25 6 -62 -16 -58 -33 -72 -50 -73
-86 0 -20 4 -26 14 -22 8 3 12 12 9 20 -3 9 1 14 12 14 11 0 15 -5 11 -16 -3
-8 -2 -12 4 -9 6 3 10 15 10 26 0 11 7 19 17 19 9 0 24 7 34 16 13 12 50 19
131 25 62 4 137 15 166 24 54 16 110 13 123 -8 4 -5 20 -9 35 -9 16 0 32 -5
36 -12 6 -8 8 -8 8 1 0 6 -4 15 -10 18 -5 3 -10 17 -10 31 0 17 -6 24 -19 24
-11 0 -40 9 -66 20 -57 25 -53 25 -60 -3z"/>
<path d="M2755 1569 c-3 -9 -5 -20 -4 -25 4 -23 -2 -45 -11 -39 -6 3 -13 -2
-16 -12 -13 -38 -43 -97 -44 -85 0 7 -5 10 -11 7 -6 -4 -8 -14 -5 -22 3 -8 1
-11 -4 -8 -6 3 -10 -3 -10 -14 0 -12 -4 -21 -8 -21 -5 0 -14 -16 -22 -35 -7
-19 -18 -31 -23 -28 -6 4 -8 0 -4 -10 4 -10 2 -17 -4 -17 -6 0 -9 -7 -5 -15 3
-9 0 -15 -8 -15 -8 0 -17 -7 -20 -16 -3 -8 -11 -12 -16 -9 -6 4 -10 3 -9 -2 3
-20 -4 -67 -8 -50 -5 20 -19 22 -26 4 -5 -13 -69 -50 -92 -53 -28 -5 -55 -17
-55 -26 0 -6 -13 -8 -30 -4 -20 3 -30 1 -30 -6 0 -7 -7 -3 -15 8 -12 16 -14
17 -15 2 0 -15 -5 -15 -52 -2 -70 18 -75 18 -83 -7 -5 -14 -12 -18 -23 -14
-10 4 -23 8 -29 8 -7 0 -13 4 -13 9 0 5 -4 7 -8 4 -5 -3 -15 4 -22 15 -8 10
-21 19 -29 19 -8 0 -25 10 -38 22 -18 17 -26 19 -32 10 -4 -7 -12 -12 -17 -11
-14 4 -58 -12 -66 -25 -5 -8 -8 -7 -8 2 0 8 -8 10 -25 6 -14 -3 -31 -1 -39 5
-7 6 -21 9 -30 5 -9 -4 -16 -1 -16 6 0 7 -7 10 -16 6 -12 -4 -15 -2 -10 9 3
10 -1 15 -13 15 -22 0 -73 25 -66 32 3 2 -5 4 -18 3 -12 -2 -32 4 -44 11 -33
20 -52 17 -26 -5 12 -10 20 -21 17 -23 -8 -9 120 -122 179 -158 34 -20 55 -40
53 -47 -3 -7 0 -13 6 -13 7 0 7 -4 -1 -14 -9 -11 -8 -15 6 -20 14 -6 15 -9 2
-21 -13 -13 -20 -13 -61 3 -26 10 -50 21 -54 25 -4 4 -18 7 -30 7 -13 0 -31 8
-41 18 -27 27 -53 45 -53 38 0 -4 21 -30 48 -58 l47 -52 -50 34 c-74 51 -135
118 -162 180 -25 55 -26 79 -8 182 5 25 2 43 -8 58 -14 21 -14 21 -20 0 -3
-13 -13 -20 -31 -20 -14 0 -29 -6 -33 -14 -4 -7 -26 -23 -48 -34 -69 -35 -242
-186 -325 -282 -25 -29 -51 -59 -59 -67 -8 -8 -47 -60 -87 -116 -40 -56 -78
-107 -83 -114 -6 -7 -11 -14 -11 -17 0 -5 -65 -105 -80 -123 -6 -7 -26 -50
-46 -95 -19 -46 -39 -92 -44 -103 -5 -11 -16 -42 -24 -70 -8 -27 -28 -84 -46
-125 -17 -41 -33 -94 -35 -118 l-5 -42 1508 2 c1067 2 1506 6 1505 14 -3 19
-2 117 3 248 5 105 3 137 -11 172 -20 52 -30 50 -38 -6 -3 -22 -17 -61 -32
-86 -34 -58 -49 -47 -51 39 -3 82 17 277 28 277 4 0 8 7 8 15 0 8 -3 15 -8 15
-11 0 -50 162 -57 238 -9 93 -89 297 -150 381 -67 92 -199 182 -309 211 -45
11 -64 22 -73 40 -10 19 -13 21 -18 9z"/>
</g>
</svg>
